<svg width="30" height="30" viewBox="0 0 30 30" fill="none" xmlns="http://www.w3.org/2000/svg">
<g clip-path="url(#clip0_1_38)">
<path d="M9.05357 1.03711L8.57143 1.875H2.14286C0.957589 1.875 0 2.71289 0 3.75C0 4.78711 0.957589 5.625 2.14286 5.625H27.8571C29.0424 5.625 30 4.78711 30 3.75C30 2.71289 29.0424 1.875 27.8571 1.875H21.4286L20.9464 1.03711C20.5848 0.398438 19.8415 0 19.0312 0H10.9688C10.1585 0 9.41518 0.398438 9.05357 1.03711ZM27.8571 7.5H2.14286L3.5625 27.3633C3.66964 28.8457 5.07589 30 6.77009 30H23.2299C24.9241 30 26.3304 28.8457 26.4375 27.3633L27.8571 7.5Z" fill="black"/>
</g>
<defs>
<clipPath id="clip0_1_38">
<rect width="30" height="30" fill="white"/>
</clipPath>
</defs>
</svg>
